<?xml version="1.0" encoding="UTF-8"?>
<svg id="Layer_1" xmlns="http://www.w3.org/2000/svg" xmlns:xlink="http://www.w3.org/1999/xlink" viewBox="0 0 1879.47 1037">
  <defs>
    <style>
      .cls-1 {
        clip-path: url(#clippath-51);
      }

      .cls-2 {
        letter-spacing: 0em;
      }

      .cls-3 {
        letter-spacing: 0em;
      }

      .cls-4 {
        letter-spacing: 0em;
      }

      .cls-5 {
        clip-path: url(#clippath-34);
      }

      .cls-6 {
        letter-spacing: 0em;
      }

      .cls-7 {
        clip-path: url(#clippath-3);
      }

      .cls-7, .cls-8, .cls-9, .cls-10, .cls-11, .cls-12, .cls-13, .cls-14, .cls-15, .cls-16, .cls-17, .cls-18, .cls-19, .cls-20, .cls-21, .cls-22, .cls-23, .cls-24, .cls-25 {
        fill: none;
      }

      .cls-7, .cls-8, .cls-9, .cls-10, .cls-11, .cls-12, .cls-13, .cls-14, .cls-16, .cls-17, .cls-18, .cls-19, .cls-20, .cls-21, .cls-22, .cls-23, .cls-25 {
        clip-rule: evenodd;
      }

      .cls-26 {
        letter-spacing: .01em;
      }

      .cls-8 {
        clip-path: url(#clippath-28);
      }

      .cls-27 {
        letter-spacing: .02em;
      }

      .cls-28 {
        clip-path: url(#clippath-7);
      }

      .cls-29 {
        clip-path: url(#clippath-17);
      }

      .cls-9 {
        clip-path: url(#clippath-15);
      }

      .cls-30 {
        clip-path: url(#clippath-33);
      }

      .cls-10 {
        clip-path: url(#clippath-42);
      }

      .cls-31 {
        clip-path: url(#clippath-47);
      }

      .cls-32 {
        clip-path: url(#clippath-4);
      }

      .cls-33 {
        clip-path: url(#clippath-22);
      }

      .cls-34 {
        clip-path: url(#clippath-23);
      }

      .cls-35 {
        letter-spacing: 0em;
      }

      .cls-36 {
        letter-spacing: .02em;
      }

      .cls-37, .cls-38, .cls-39, .cls-40 {
        fill: #e6e6e6;
        font-family: MyriadPro-Regular, 'Myriad Pro';
      }

      .cls-37, .cls-41 {
        letter-spacing: 0em;
      }

      .cls-37, .cls-39 {
        font-size: 28px;
      }

      .cls-42 {
        letter-spacing: 0em;
      }

      .cls-11 {
        clip-path: url(#clippath-38);
      }

      .cls-43 {
        clip-path: url(#clippath-10);
      }

      .cls-44 {
        letter-spacing: .02em;
      }

      .cls-45 {
        letter-spacing: -.02em;
      }

      .cls-12 {
        clip-path: url(#clippath-9);
      }

      .cls-46 {
        clip-path: url(#clippath-43);
      }

      .cls-47 {
        clip-path: url(#clippath-25);
      }

      .cls-48 {
        clip-path: url(#clippath-27);
      }

      .cls-49 {
        fill: #fbb03b;
        stroke: #fbb03b;
        stroke-width: 5px;
      }

      .cls-49, .cls-50, .cls-51, .cls-24 {
        stroke-miterlimit: 10;
      }

      .cls-50 {
        fill: #134f5c;
      }

      .cls-50, .cls-51, .cls-24 {
        stroke: #bdccd4;
      }

      .cls-50, .cls-24 {
        stroke-width: 6px;
      }

      .cls-13 {
        clip-path: url(#clippath-6);
      }

      .cls-14 {
        clip-path: url(#clippath-21);
      }

      .cls-52 {
        letter-spacing: 0em;
      }

      .cls-53 {
        clip-path: url(#clippath-11);
      }

      .cls-54 {
        letter-spacing: .03em;
      }

      .cls-55 {
        letter-spacing: .03em;
      }

      .cls-16 {
        clip-path: url(#clippath-31);
      }

      .cls-56 {
        clip-path: url(#clippath-36);
      }

      .cls-57 {
        letter-spacing: 0em;
      }

      .cls-58 {
        clip-path: url(#clippath-48);
      }

      .cls-59 {
        clip-path: url(#clippath-1);
      }

      .cls-60 {
        fill: #c48700;
      }

      .cls-38 {
        font-size: 40px;
      }

      .cls-61 {
        letter-spacing: 0em;
      }

      .cls-17 {
        clip-path: url(#clippath-12);
      }

      .cls-62 {
        letter-spacing: -.07em;
      }

      .cls-63 {
        clip-path: url(#clippath-46);
      }

      .cls-64 {
        clip-path: url(#clippath-40);
      }

      .cls-65 {
        clip-path: url(#clippath-5);
      }

      .cls-66 {
        clip-path: url(#clippath-20);
      }

      .cls-67 {
        letter-spacing: 0em;
      }

      .cls-68 {
        clip-path: url(#clippath-8);
      }

      .cls-18 {
        clip-path: url(#clippath-35);
      }

      .cls-69 {
        clip-path: url(#clippath-41);
      }

      .cls-70 {
        letter-spacing: 0em;
      }

      .cls-71 {
        letter-spacing: 0em;
      }

      .cls-72 {
        letter-spacing: .02em;
      }

      .cls-19 {
        clip-path: url(#clippath-18);
      }

      .cls-73 {
        letter-spacing: 0em;
      }

      .cls-74 {
        clip-path: url(#clippath-26);
      }

      .cls-75 {
        letter-spacing: 0em;
      }

      .cls-76 {
        clip-path: url(#clippath-50);
      }

      .cls-77 {
        letter-spacing: .01em;
      }

      .cls-78 {
        clip-path: url(#clippath-14);
      }

      .cls-79 {
        letter-spacing: 0em;
      }

      .cls-80 {
        clip-path: url(#clippath-30);
      }

      .cls-81 {
        letter-spacing: .01em;
      }

      .cls-82 {
        clip-path: url(#clippath-19);
      }

      .cls-83 {
        letter-spacing: 0em;
      }

      .cls-21 {
        clip-path: url(#clippath-24);
      }

      .cls-84 {
        letter-spacing: 0em;
      }

      .cls-85 {
        clip-path: url(#clippath-32);
      }

      .cls-86 {
        letter-spacing: -.07em;
      }

      .cls-87 {
        letter-spacing: -.03em;
      }

      .cls-22 {
        clip-path: url(#clippath-49);
      }

      .cls-51 {
        fill: #bdccd4;
      }

      .cls-88 {
        clip-path: url(#clippath-39);
      }

      .cls-89 {
        letter-spacing: 0em;
      }

      .cls-23 {
        clip-path: url(#clippath-45);
      }

      .cls-90 {
        clip-path: url(#clippath-16);
      }

      .cls-91 {
        clip-path: url(#clippath-2);
      }

      .cls-92 {
        letter-spacing: .01em;
      }

      .cls-93 {
        clip-path: url(#clippath-29);
      }

      .cls-94 {
        clip-path: url(#clippath-37);
      }

      .cls-95 {
        letter-spacing: -.02em;
      }

      .cls-96 {
        clip-path: url(#clippath-13);
      }

      .cls-97 {
        letter-spacing: 0em;
      }

      .cls-98 {
        letter-spacing: 0em;
      }

      .cls-40 {
        font-size: 30px;
      }

      .cls-99 {
        letter-spacing: 0em;
      }

      .cls-25 {
        clip-path: url(#clippath);
      }

      .cls-100 {
        letter-spacing: 0em;
      }

      .cls-101 {
        letter-spacing: 0em;
      }

      .cls-102 {
        clip-path: url(#clippath-44);
      }
    </style>
    <clipPath id="clippath">
      <polygon class="cls-20" points="17.43 404.5 87.43 404.5 87.43 334.5 17.43 334.5 17.43 404.5 17.43 404.5"/>
    </clipPath>
    <clipPath id="clippath-1">
      <polygon class="cls-25" points="17.43 334.5 87.43 334.5 87.43 404.5 17.43 404.5 17.43 334.5 17.43 334.5"/>
    </clipPath>
    <clipPath id="clippath-2">
      <polygon class="cls-15" points="17.43 404.5 87.43 404.5 87.43 334.5 17.43 334.5 17.43 404.5 17.43 404.5"/>
    </clipPath>
    <clipPath id="clippath-3">
      <polygon class="cls-20" points="74.43 876.5 144.43 876.5 144.43 806.5 74.43 806.5 74.43 876.5 74.43 876.5"/>
    </clipPath>
    <clipPath id="clippath-4">
      <polygon class="cls-7" points="74.43 806.5 144.43 806.5 144.43 876.5 74.43 876.5 74.43 806.5 74.43 806.5"/>
    </clipPath>
    <clipPath id="clippath-5">
      <polygon class="cls-15" points="74.43 876.5 144.43 876.5 144.43 806.5 74.43 806.5 74.43 876.5 74.43 876.5"/>
    </clipPath>
    <clipPath id="clippath-6">
      <polygon class="cls-20" points="1575.43 204.5 1645.43 204.5 1645.43 134.5 1575.43 134.5 1575.43 204.5 1575.43 204.5"/>
    </clipPath>
    <clipPath id="clippath-7">
      <polygon class="cls-13" points="1575.43 134.5 1645.43 134.5 1645.43 204.5 1575.43 204.5 1575.43 134.5 1575.43 134.5"/>
    </clipPath>
    <clipPath id="clippath-8">
      <polygon class="cls-15" points="1575.43 204.5 1645.43 204.5 1645.43 134.5 1575.43 134.5 1575.43 204.5 1575.43 204.5"/>
    </clipPath>
    <clipPath id="clippath-9">
      <polygon class="cls-20" points="1563.43 786.5 1633.43 786.5 1633.43 716.5 1563.43 716.5 1563.43 786.5 1563.43 786.5"/>
    </clipPath>
    <clipPath id="clippath-10">
      <polygon class="cls-12" points="1563.43 716.5 1633.43 716.5 1633.43 786.5 1563.43 786.5 1563.43 716.5 1563.43 716.5"/>
    </clipPath>
    <clipPath id="clippath-11">
      <polygon class="cls-15" points="1563.43 786.5 1633.43 786.5 1633.43 716.5 1563.43 716.5 1563.43 786.5 1563.43 786.5"/>
    </clipPath>
    <clipPath id="clippath-12">
      <polygon class="cls-20" points="16.43 556.5 88.43 556.5 88.43 484.5 16.43 484.5 16.43 556.5 16.43 556.5"/>
    </clipPath>
    <clipPath id="clippath-13">
      <polygon class="cls-17" points="16.43 484.5 88.43 484.5 88.43 556.5 16.43 556.5 16.43 484.5 16.43 484.5"/>
    </clipPath>
    <clipPath id="clippath-14">
      <polygon class="cls-15" points="16.43 556.5 88.43 556.5 88.43 484.5 16.43 484.5 16.43 556.5 16.43 556.5"/>
    </clipPath>
    <clipPath id="clippath-15">
      <polygon class="cls-20" points="73.43 1022.5 145.43 1022.5 145.43 950.5 73.43 950.5 73.43 1022.5 73.43 1022.5"/>
    </clipPath>
    <clipPath id="clippath-16">
      <polygon class="cls-9" points="73.43 950.5 145.43 950.5 145.43 1022.5 73.43 1022.5 73.43 950.5 73.43 950.5"/>
    </clipPath>
    <clipPath id="clippath-17">
      <polygon class="cls-15" points="73.43 1022.5 145.43 1022.5 145.43 950.5 73.43 950.5 73.43 1022.5 73.43 1022.5"/>
    </clipPath>
    <clipPath id="clippath-18">
      <polygon class="cls-20" points="1574.43 352.5 1646.43 352.5 1646.43 280.5 1574.43 280.5 1574.43 352.5 1574.43 352.5"/>
    </clipPath>
    <clipPath id="clippath-19">
      <polygon class="cls-19" points="1574.43 280.5 1646.43 280.5 1646.43 352.5 1574.43 352.5 1574.43 280.5 1574.43 280.5"/>
    </clipPath>
    <clipPath id="clippath-20">
      <polygon class="cls-15" points="1574.43 352.5 1646.43 352.5 1646.43 280.5 1574.43 280.5 1574.43 352.5 1574.43 352.5"/>
    </clipPath>
    <clipPath id="clippath-21">
      <polygon class="cls-20" points="1562.43 956.5 1634.43 956.5 1634.43 884.5 1562.43 884.5 1562.43 956.5 1562.43 956.5"/>
    </clipPath>
    <clipPath id="clippath-22">
      <polygon class="cls-14" points="1562.43 884.5 1634.43 884.5 1634.43 956.5 1562.43 956.5 1562.43 884.5 1562.43 884.5"/>
    </clipPath>
    <clipPath id="clippath-23">
      <polygon class="cls-15" points="1562.43 956.5 1634.43 956.5 1634.43 884.5 1562.43 884.5 1562.43 956.5 1562.43 956.5"/>
    </clipPath>
    <clipPath id="clippath-24">
      <polygon class="cls-20" points="4.31 488.62 100.55 488.62 100.55 392.38 4.31 392.38 4.31 488.62 4.31 488.62"/>
    </clipPath>
    <clipPath id="clippath-25">
      <polygon class="cls-21" points="16.43 404.5 88.43 404.5 88.43 476.5 16.43 476.5 16.43 404.5 16.43 404.5"/>
    </clipPath>
    <clipPath id="clippath-26">
      <polygon class="cls-15" points="16.43 476.5 88.43 476.5 88.43 404.5 16.43 404.5 16.43 476.5 16.43 476.5"/>
    </clipPath>
    <clipPath id="clippath-27">
      <polygon class="cls-20" points="4.31 488.62 100.55 488.62 100.55 392.38 4.31 392.38 4.31 488.62 4.31 488.62"/>
    </clipPath>
    <clipPath id="clippath-28">
      <polygon class="cls-20" points="4.31 488.62 100.55 488.62 100.55 392.38 4.31 392.38 4.31 488.62 4.31 488.62"/>
    </clipPath>
    <clipPath id="clippath-29">
      <polygon class="cls-8" points="4.31 392.38 100.55 392.38 100.55 488.62 4.31 488.62 4.31 392.38 4.31 392.38"/>
    </clipPath>
    <clipPath id="clippath-30">
      <polygon class="cls-15" points="4.31 488.62 100.55 488.62 100.55 392.38 4.31 392.38 4.31 488.62 4.31 488.62"/>
    </clipPath>
    <clipPath id="clippath-31">
      <polygon class="cls-20" points="61.31 962.62 157.55 962.62 157.55 866.38 61.31 866.38 61.31 962.62 61.31 962.62"/>
    </clipPath>
    <clipPath id="clippath-32">
      <polygon class="cls-16" points="73.43 878.5 145.43 878.5 145.43 950.5 73.43 950.5 73.43 878.5 73.43 878.5"/>
    </clipPath>
    <clipPath id="clippath-33">
      <polygon class="cls-15" points="73.43 950.5 145.43 950.5 145.43 878.5 73.43 878.5 73.43 950.5 73.43 950.5"/>
    </clipPath>
    <clipPath id="clippath-34">
      <polygon class="cls-20" points="61.31 962.62 157.55 962.62 157.55 866.38 61.31 866.38 61.31 962.62 61.31 962.62"/>
    </clipPath>
    <clipPath id="clippath-35">
      <polygon class="cls-20" points="61.31 962.62 157.55 962.62 157.55 866.38 61.31 866.38 61.31 962.62 61.31 962.62"/>
    </clipPath>
    <clipPath id="clippath-36">
      <polygon class="cls-18" points="61.31 866.38 157.55 866.38 157.55 962.62 61.31 962.62 61.31 866.38 61.31 866.38"/>
    </clipPath>
    <clipPath id="clippath-37">
      <polygon class="cls-15" points="61.31 962.62 157.55 962.62 157.55 866.38 61.31 866.38 61.31 962.62 61.31 962.62"/>
    </clipPath>
    <clipPath id="clippath-38">
      <polygon class="cls-20" points="1562.31 290.62 1658.55 290.62 1658.55 194.38 1562.31 194.38 1562.31 290.62 1562.31 290.62"/>
    </clipPath>
    <clipPath id="clippath-39">
      <polygon class="cls-11" points="1574.43 206.5 1646.43 206.5 1646.43 278.5 1574.43 278.5 1574.43 206.5 1574.43 206.5"/>
    </clipPath>
    <clipPath id="clippath-40">
      <polygon class="cls-15" points="1574.43 278.5 1646.43 278.5 1646.43 206.5 1574.43 206.5 1574.43 278.5 1574.43 278.5"/>
    </clipPath>
    <clipPath id="clippath-41">
      <polygon class="cls-20" points="1562.31 290.62 1658.55 290.62 1658.55 194.38 1562.31 194.38 1562.31 290.62 1562.31 290.62"/>
    </clipPath>
    <clipPath id="clippath-42">
      <polygon class="cls-20" points="1562.31 290.62 1658.55 290.62 1658.55 194.38 1562.31 194.38 1562.31 290.62 1562.31 290.62"/>
    </clipPath>
    <clipPath id="clippath-43">
      <polygon class="cls-10" points="1562.31 194.38 1658.55 194.38 1658.55 290.62 1562.31 290.62 1562.31 194.38 1562.31 194.38"/>
    </clipPath>
    <clipPath id="clippath-44">
      <polygon class="cls-15" points="1562.31 290.62 1658.55 290.62 1658.55 194.38 1562.31 194.38 1562.31 290.62 1562.31 290.62"/>
    </clipPath>
    <clipPath id="clippath-45">
      <polygon class="cls-20" points="1550.31 884.62 1646.55 884.62 1646.55 788.38 1550.31 788.38 1550.31 884.62 1550.31 884.62"/>
    </clipPath>
    <clipPath id="clippath-46">
      <polygon class="cls-23" points="1562.43 800.5 1634.43 800.5 1634.43 872.5 1562.43 872.5 1562.43 800.5 1562.43 800.5"/>
    </clipPath>
    <clipPath id="clippath-47">
      <polygon class="cls-15" points="1562.43 872.5 1634.43 872.5 1634.43 800.5 1562.43 800.5 1562.43 872.5 1562.43 872.5"/>
    </clipPath>
    <clipPath id="clippath-48">
      <polygon class="cls-20" points="1550.31 884.62 1646.55 884.62 1646.55 788.38 1550.31 788.38 1550.31 884.62 1550.31 884.62"/>
    </clipPath>
    <clipPath id="clippath-49">
      <polygon class="cls-20" points="1550.31 884.62 1646.55 884.62 1646.55 788.38 1550.31 788.38 1550.31 884.62 1550.31 884.62"/>
    </clipPath>
    <clipPath id="clippath-50">
      <polygon class="cls-22" points="1550.31 788.38 1646.55 788.38 1646.55 884.62 1550.31 884.62 1550.31 788.38 1550.31 788.38"/>
    </clipPath>
    <clipPath id="clippath-51">
      <polygon class="cls-15" points="1550.31 884.62 1646.55 884.62 1646.55 788.38 1550.31 788.38 1550.31 884.62 1550.31 884.62"/>
    </clipPath>
  </defs>
  <image width="2400" height="1800" transform="translate(350.93 71) scale(.5)" xlink:href="maps.png"/>
  <circle class="cls-51" cx="678.93" cy="799" r="13"/>
  <line class="cls-50" x1="377.93" y1="745" x2="691.93" y2="836"/>
  <rect class="cls-24" x="70.4" y="744" width="315" height="290" rx="12" ry="12"/>
  <text class="cls-38" transform="translate(161.48 784)"><tspan class="cls-4" x="0" y="0">E</tspan><tspan class="cls-79" x="19.92" y="0">c</tspan><tspan class="cls-70" x="38" y="0">o</tspan><tspan class="cls-101" x="60.36" y="0">C</tspan><tspan class="cls-70" x="83.68" y="0">ast</tspan></text>
  <text class="cls-39" transform="translate(195.53 1002.11)"><tspan x="0" y="0">1 </tspan><tspan class="cls-100" x="20.3" y="0">r</tspan><tspan x="29.18" y="0">esponse</tspan></text>
  <line class="cls-49" x1="161.5" y1="794.5" x2="294.3" y2="794.5"/>
  <text class="cls-39" transform="translate(169.32 833.21)"><tspan class="cls-45" x="0" y="0">U</tspan><tspan class="cls-26" x="17.64" y="0">.S.</tspan><tspan class="cls-87" x="43.88" y="0"> </tspan><tspan class="cls-95" x="49.08" y="0">W</tspan><tspan class="cls-41" x="72.13" y="0">est </tspan><tspan class="cls-84" x="113.57" y="0">C</tspan><tspan class="cls-41" x="129.78" y="0">oast </tspan><tspan class="cls-57" x="-17.91" y="33.6">S</tspan><tspan x="-4.05" y="33.6">w</tspan><tspan class="cls-41" x="16.56" y="33.6">o</tspan><tspan class="cls-6" x="32.21" y="33.6">r</tspan><tspan class="cls-41" x="41.37" y="33.6">dfish fishe</tspan><tspan class="cls-92" x="162.19" y="33.6">r</tspan><tspan class="cls-26" x="171.74" y="33.6">ies</tspan></text>
  <text class="cls-39" transform="translate(157.52 916.88)"><tspan class="cls-72" x="0" y="0">M</tspan><tspan class="cls-26" x="22.96" y="0">a</tspan><tspan class="cls-92" x="36.74" y="0">r</tspan><tspan class="cls-26" x="46.28" y="0">ine mammal</tspan><tspan class="cls-3" x="194.79" y="0">s</tspan><tspan class="cls-26" x="205.85" y="0">,</tspan><tspan class="cls-41" x="44.39" y="33.6">sea tu</tspan><tspan class="cls-55" x="115.32" y="33.6">r</tspan><tspan class="cls-41" x="125.42" y="33.6">tles</tspan></text>
  <circle class="cls-51" cx="691.93" cy="836" r="13"/>
  <line class="cls-50" x1="311.93" y1="283" x2="513.29" y2="638.26"/>
  <line class="cls-50" x1="314.93" y1="567" x2="675.93" y2="798"/>
  <rect class="cls-24" x="3" y="281" width="315" height="290" rx="12" ry="12"/>
  <text class="cls-38" transform="translate(67 320.99)"><tspan class="cls-42" x="0" y="0">W</tspan><tspan class="cls-70" x="34.04" y="0">hale </tspan><tspan class="cls-77" x="115.48" y="0">S</tspan><tspan class="cls-70" x="135.72" y="0">a</tspan><tspan class="cls-83" x="155.4" y="0">f</tspan><tspan class="cls-26" x="166.96" y="0">e</tspan></text>
  <line class="cls-49" x1="67.1" y1="331.49" x2="253.9" y2="331.49"/>
  <text class="cls-39" transform="translate(124.04 536.76)"><tspan x="0" y="0">10 </tspan><tspan class="cls-100" x="34.66" y="0">r</tspan><tspan x="43.54" y="0">esponses</tspan></text>
  <text class="cls-39" transform="translate(143.05 363.36)"><tspan class="cls-26"><tspan x="0" y="0">Shipping </tspan></tspan><tspan x="15.44" y="33.6">v</tspan><tspan class="cls-41" x="28.91" y="33.6">essels</tspan></text>
  <text class="cls-37" transform="translate(115.12 454.42)"><tspan x="0" y="0">Baleen whales</tspan></text>
  <circle class="cls-51" cx="1392.93" cy="467" r="13"/>
  <circle class="cls-51" cx="1276.93" cy="560" r="13"/>
  <rect class="cls-24" x="1561.47" y="3" width="315" height="359" rx="12" ry="12"/>
  <rect class="cls-24" x="1556.64" y="574" width="315" height="397" rx="12" ry="12"/>
  <line class="cls-50" x1="1392.93" y1="467" x2="1566.93" y2="360"/>
  <line class="cls-50" x1="1276.93" y1="560" x2="1561.93" y2="576"/>
  <text class="cls-40" transform="translate(1596.38 37.99)"><tspan class="cls-62" x="0" y="0">Y</tspan><tspan class="cls-61" x="14.25" y="0">ell</tspan><tspan class="cls-71" x="44.34" y="0">o</tspan><tspan class="cls-26" x="60.9" y="0">wtail flounder </tspan><tspan class="cls-71" x=".45" y="36">b</tspan><tspan class="cls-75" x="17.61" y="36">y</tspan><tspan class="cls-61" x="31.74" y="36">c</tspan><tspan class="cls-52" x="45.48" y="36">a</tspan><tspan class="cls-79" x="60.12" y="36">t</tspan><tspan class="cls-61" x="70.17" y="36">ch </tspan><tspan class="cls-73" x="107.52" y="36">a</tspan><tspan x="122.04" y="36">v</tspan><tspan class="cls-26" x="136.47" y="36">oidan</tspan><tspan class="cls-79" x="209.49" y="36">c</tspan><tspan class="cls-61" x="223.05" y="36">e </tspan><tspan class="cls-26" x="67.3" y="72">p</tspan><tspan x="84.67" y="72">r</tspan><tspan class="cls-26" x="94.48" y="72">o</tspan><tspan class="cls-79" x="111.25" y="72">g</tspan><tspan class="cls-97" x="128.14" y="72">r</tspan><tspan class="cls-61" x="138.1" y="72">am</tspan></text>
  <line class="cls-49" x1="1596.47" y1="125.49" x2="1841.47" y2="125.49"/>
  <line class="cls-49" x1="1595.14" y1="699.49" x2="1839.14" y2="699.49"/>
  <text class="cls-39" transform="translate(1683.68 324.97)"><tspan x="0" y="0">8 </tspan><tspan class="cls-100" x="20.3" y="0">r</tspan><tspan x="29.18" y="0">esponses</tspan></text>
  <text class="cls-39" transform="translate(1659.92 156.57)"><tspan class="cls-45" x="0" y="0">U</tspan><tspan class="cls-26" x="17.64" y="0">.S. </tspan><tspan class="cls-72" x="50.09" y="0">S</tspan><tspan class="cls-26" x="64.34" y="0">ea </tspan><tspan class="cls-27" x="98.64" y="0">S</tspan><tspan class="cls-26" x="112.89" y="0">callop</tspan><tspan class="cls-41" x="52.55" y="33.6">fishe</tspan><tspan class="cls-54" x="108.97" y="33.6">r</tspan><tspan class="cls-41" x="119.11" y="33.6">y</tspan></text>
  <text class="cls-39" transform="translate(1695.1 232.24)"><tspan class="cls-86" x="0" y="0">Y</tspan><tspan class="cls-26" x="13.3" y="0">ell</tspan><tspan class="cls-2" x="41.38" y="0">o</tspan><tspan class="cls-41" x="56.84" y="0">wtail</tspan><tspan class="cls-67" x="3.72" y="33.6">F</tspan><tspan class="cls-41" x="17.16" y="33.6">lounder</tspan></text>
  <text class="cls-39" transform="translate(1689.68 934.47)"><tspan x="0" y="0">3 </tspan><tspan class="cls-100" x="20.3" y="0">r</tspan><tspan x="29.18" y="0">esponses</tspan></text>
  <text class="cls-39" transform="translate(1667.69 731.67)"><tspan class="cls-45" x="0" y="0">U</tspan><tspan class="cls-26" x="17.64" y="0">.S. No</tspan><tspan class="cls-55" x="84.45" y="0">r</tspan><tspan class="cls-41" x="94.55" y="0">t</tspan><tspan class="cls-98" x="104.1" y="0">h</tspan><tspan x="119.56" y="0">w</tspan><tspan class="cls-26" x="140.17" y="0">est </tspan><tspan x="-22.96" y="33.6">A</tspan><tspan class="cls-26" x="-5.82" y="33.6">tla</tspan><tspan class="cls-35" x="24.39" y="33.6">n</tspan><tspan class="cls-26" x="40.1" y="33.6">tic mid</tspan><tspan class="cls-99" x="122.05" y="33.6">-</tspan><tspan class="cls-35" x="130.79" y="33.6">wa</tspan><tspan class="cls-89" x="165.23" y="33.6">t</tspan><tspan class="cls-41" x="174.61" y="33.6">er </tspan><tspan class="cls-41" x="17.6" y="67.2">t</tspan><tspan class="cls-99" x="27.15" y="67.2">r</tspan><tspan class="cls-57" x="36.44" y="67.2">a</tspan><tspan class="cls-41" x="49.99" y="67.2">wl fishe</tspan><tspan class="cls-54" x="140.4" y="67.2">r</tspan><tspan class="cls-41" x="150.54" y="67.2">y</tspan></text>
  <text class="cls-39" transform="translate(1681.64 855.14)"><tspan class="cls-44" x="0" y="0">R</tspan><tspan class="cls-26" x="15.62" y="0">i</tspan><tspan x="22.46" y="0">v</tspan><tspan class="cls-41" x="35.92" y="0">er he</tspan><tspan class="cls-92" x="96.01" y="0">rr</tspan><tspan class="cls-41" x="115.11" y="0">ing</tspan></text>
  <text class="cls-40" transform="translate(1633.07 608.81)"><tspan class="cls-36" x="0" y="0">R</tspan><tspan class="cls-61" x="16.74" y="0">i</tspan><tspan x="24.06" y="0">v</tspan><tspan class="cls-61" x="38.49" y="0">er he</tspan><tspan class="cls-81" x="102.87" y="0">rr</tspan><tspan class="cls-61" x="123.33" y="0">ing </tspan><tspan class="cls-71" x="-36.63" y="36">b</tspan><tspan class="cls-75" x="-19.47" y="36">y</tspan><tspan class="cls-61" x="-5.34" y="36">c</tspan><tspan class="cls-52" x="8.4" y="36">a</tspan><tspan class="cls-79" x="23.04" y="36">t</tspan><tspan class="cls-61" x="33.09" y="36">ch </tspan><tspan class="cls-73" x="70.44" y="36">a</tspan><tspan x="84.96" y="36">v</tspan><tspan class="cls-26" x="99.39" y="36">oidan</tspan><tspan class="cls-79" x="172.41" y="36">c</tspan><tspan class="cls-61" x="185.97" y="36">e </tspan><tspan class="cls-26" x="30.22" y="72">p</tspan><tspan x="47.59" y="72">r</tspan><tspan class="cls-26" x="57.4" y="72">o</tspan><tspan class="cls-79" x="74.17" y="72">g</tspan><tspan class="cls-97" x="91.06" y="72">r</tspan><tspan class="cls-61" x="101.02" y="72">am</tspan></text>
  <circle class="cls-51" cx="513.43" cy="638.5" r="13"/>
  <g class="cls-59">
    <g class="cls-91">
      <path class="cls-60" d="M52.75,345.32c1.59,0,2.88,1.3,2.88,2.89s-1.3,2.89-2.88,2.89-2.88-1.3-2.88-2.89,1.3-2.89,2.88-2.89h0ZM76.9,368.84c-.07-.5-.43-.94-.87-1.15-.43-.22-1.01-.14-1.44.22l-8.15,6.28c-.43.29-.65.79-.58,1.37.07.5.43.94.87,1.15l3.1,1.3c-1.66,7.14-7.64,12.48-14.92,13.34v-29.43h18.02v-4.33h-18.02v-2.52c3.39-1.08,5.48-4.47,4.97-8.01-.58-3.46-3.6-6.06-7.14-6.06s-6.56,2.6-7.14,6.13c-.5,3.53,1.59,6.92,4.97,8.01v2.45h-18.02v4.33h18.02v29.43c-7.28-.94-13.27-6.28-14.92-13.42l3.1-1.3c.43-.22.79-.65.87-1.15.07-.5-.14-1.01-.58-1.3l-8.15-6.28c-.43-.29-.94-.36-1.44-.22-.5.22-.79.65-.87,1.15l-1.3,10.24c-.07.5.14,1.01.58,1.3s.94.36,1.44.22l2.31-.94c1.95,7.21,7.5,12.98,14.63,15.22l5.77,3.1c.43.22.94.22,1.37,0l5.84-3.17c7.14-2.24,12.62-8.01,14.56-15.22l2.31,1.01c.5.22,1.01.14,1.44-.22.43-.29.65-.79.58-1.3l-1.23-10.24h0Z"/>
    </g>
  </g>
  <g class="cls-32">
    <g class="cls-65">
      <path class="cls-60" d="M109.75,817.32c1.59,0,2.88,1.3,2.88,2.89s-1.3,2.89-2.88,2.89-2.88-1.3-2.88-2.89,1.3-2.89,2.88-2.89h0ZM133.9,840.84c-.07-.5-.43-.94-.87-1.15-.43-.22-1.01-.14-1.44.22l-8.15,6.28c-.43.29-.65.79-.58,1.37.07.5.43.94.87,1.15l3.1,1.3c-1.66,7.14-7.64,12.48-14.92,13.34v-29.43h18.02v-4.33h-18.02v-2.52c3.39-1.08,5.48-4.47,4.97-8.01-.58-3.46-3.6-6.06-7.14-6.06s-6.56,2.6-7.14,6.13c-.5,3.53,1.59,6.92,4.97,8.01v2.45h-18.02v4.33h18.02v29.43c-7.28-.94-13.27-6.28-14.92-13.42l3.1-1.3c.43-.22.79-.65.87-1.15.07-.5-.14-1.01-.58-1.3l-8.15-6.28c-.43-.29-.94-.36-1.44-.22-.5.22-.79.65-.87,1.15l-1.3,10.24c-.07.5.14,1.01.58,1.3s.94.36,1.44.22l2.31-.94c1.95,7.21,7.5,12.98,14.63,15.22l5.77,3.1c.43.22.94.22,1.37,0l5.84-3.17c7.14-2.24,12.62-8.01,14.56-15.22l2.31,1.01c.5.22,1.01.14,1.44-.22.43-.29.65-.79.58-1.3l-1.23-10.24h0Z"/>
    </g>
  </g>
  <g class="cls-28">
    <g class="cls-68">
      <path class="cls-60" d="M1610.75,145.32c1.59,0,2.88,1.3,2.88,2.89s-1.3,2.89-2.88,2.89-2.88-1.3-2.88-2.89,1.3-2.89,2.88-2.89h0ZM1634.9,168.84c-.07-.5-.43-.94-.87-1.15-.43-.22-1.01-.14-1.44.22l-8.15,6.28c-.43.29-.65.79-.58,1.37.07.5.43.94.87,1.15l3.1,1.3c-1.66,7.14-7.64,12.48-14.92,13.34v-29.43h18.02v-4.33h-18.02v-2.52c3.39-1.08,5.48-4.47,4.97-8.01-.58-3.46-3.6-6.06-7.14-6.06s-6.56,2.6-7.14,6.13c-.5,3.53,1.59,6.92,4.97,8.01v2.45h-18.02v4.33h18.02v29.43c-7.28-.94-13.27-6.28-14.92-13.42l3.1-1.3c.43-.22.79-.65.87-1.15.07-.5-.14-1.01-.58-1.3l-8.15-6.28c-.43-.29-.94-.36-1.44-.22-.5.22-.79.65-.87,1.15l-1.3,10.24c-.07.5.14,1.01.58,1.3s.94.36,1.44.22l2.31-.94c1.95,7.21,7.5,12.98,14.63,15.22l5.77,3.1c.43.22.94.22,1.37,0l5.84-3.17c7.14-2.24,12.62-8.01,14.56-15.22l2.31,1.01c.5.22,1.01.14,1.44-.22.43-.29.65-.79.58-1.3l-1.23-10.24h0Z"/>
    </g>
  </g>
  <g class="cls-43">
    <g class="cls-53">
      <path class="cls-60" d="M1598.75,727.32c1.59,0,2.88,1.3,2.88,2.89s-1.3,2.89-2.88,2.89-2.88-1.3-2.88-2.89,1.3-2.89,2.88-2.89h0ZM1622.9,750.84c-.07-.5-.43-.94-.87-1.15-.43-.22-1.01-.14-1.44.22l-8.15,6.28c-.43.29-.65.79-.58,1.37.07.5.43.94.87,1.15l3.1,1.3c-1.66,7.14-7.64,12.48-14.92,13.34v-29.43h18.02v-4.33h-18.02v-2.52c3.39-1.08,5.48-4.47,4.97-8.01-.58-3.46-3.6-6.06-7.14-6.06s-6.56,2.6-7.14,6.13c-.5,3.53,1.59,6.92,4.97,8.01v2.45h-18.02v4.33h18.02v29.43c-7.28-.94-13.27-6.28-14.92-13.42l3.1-1.3c.43-.22.79-.65.87-1.15.07-.5-.14-1.01-.58-1.3l-8.15-6.28c-.43-.29-.94-.36-1.44-.22-.5.22-.79.65-.87,1.15l-1.3,10.24c-.07.5.14,1.01.58,1.3s.94.36,1.44.22l2.31-.94c1.95,7.21,7.5,12.98,14.63,15.22l5.77,3.1c.43.22.94.22,1.37,0l5.84-3.17c7.14-2.24,12.62-8.01,14.56-15.22l2.31,1.01c.5.22,1.01.14,1.44-.22.43-.29.65-.79.58-1.3l-1.23-10.24h0Z"/>
    </g>
  </g>
  <g class="cls-96">
    <g class="cls-78">
      <polygon class="cls-60" points="37.93 516.4 67.59 516.4 67.59 517.89 37.93 517.89 37.93 516.4 37.93 516.4"/>
      <polygon class="cls-60" points="37.93 510.47 52.02 510.47 52.02 511.95 37.93 511.95 37.93 510.47 37.93 510.47"/>
      <polygon class="cls-60" points="37.93 522.34 67.59 522.34 67.59 523.82 37.93 523.82 37.93 522.34 37.93 522.34"/>
      <polygon class="cls-60" points="37.93 528.27 67.59 528.27 67.59 529.76 37.93 529.76 37.93 528.27 37.93 528.27"/>
      <polygon class="cls-60" points="37.93 534.21 67.59 534.21 67.59 535.69 37.93 535.69 37.93 534.21 37.93 534.21"/>
      <polygon class="cls-60" points="37.93 540.15 67.59 540.15 67.59 541.63 37.93 541.63 37.93 540.15 37.93 540.15"/>
      <path class="cls-60" d="M30.52,491.18v59.36h44.49v-43.34l-16.01-16.02h-28.48ZM59.45,493.72l13.02,13.02s0,0,0,.01c0,0,0,0,0,0h-13.02v-13.03s0,0,0,0c0,0,0,0,0,0h0ZM32,549.05v-56.39h25.95v15.58h15.57v40.81H32Z"/>
    </g>
  </g>
  <g class="cls-90">
    <g class="cls-29">
      <polygon class="cls-60" points="94.93 982.4 124.59 982.4 124.59 983.89 94.93 983.89 94.93 982.4 94.93 982.4"/>
      <polygon class="cls-60" points="94.93 976.47 109.02 976.47 109.02 977.95 94.93 977.95 94.93 976.47 94.93 976.47"/>
      <polygon class="cls-60" points="94.93 988.34 124.59 988.34 124.59 989.82 94.93 989.82 94.93 988.34 94.93 988.34"/>
      <polygon class="cls-60" points="94.93 994.27 124.59 994.27 124.59 995.76 94.93 995.76 94.93 994.27 94.93 994.27"/>
      <polygon class="cls-60" points="94.93 1000.21 124.59 1000.21 124.59 1001.69 94.93 1001.69 94.93 1000.21 94.93 1000.21"/>
      <polygon class="cls-60" points="94.93 1006.15 124.59 1006.15 124.59 1007.63 94.93 1007.63 94.93 1006.15 94.93 1006.15"/>
      <path class="cls-60" d="M87.52,957.18v59.36h44.49v-43.34l-16.01-16.02h-28.48ZM116.45,959.72l13.02,13.02s0,0,0,.01c0,0,0,0,0,0h-13.02v-13.03s0,0,0,0c0,0,0,0,0,0h0ZM89,1015.05v-56.39h25.95v15.58h15.57v40.81h-41.53Z"/>
    </g>
  </g>
  <g class="cls-82">
    <g class="cls-66">
      <polygon class="cls-60" points="1595.93 312.4 1625.59 312.4 1625.59 313.89 1595.93 313.89 1595.93 312.4 1595.93 312.4"/>
      <polygon class="cls-60" points="1595.93 306.47 1610.02 306.47 1610.02 307.95 1595.93 307.95 1595.93 306.47 1595.93 306.47"/>
      <polygon class="cls-60" points="1595.93 318.34 1625.59 318.34 1625.59 319.82 1595.93 319.82 1595.93 318.34 1595.93 318.34"/>
      <polygon class="cls-60" points="1595.93 324.27 1625.59 324.27 1625.59 325.76 1595.93 325.76 1595.93 324.27 1595.93 324.27"/>
      <polygon class="cls-60" points="1595.93 330.21 1625.59 330.21 1625.59 331.69 1595.93 331.69 1595.93 330.21 1595.93 330.21"/>
      <polygon class="cls-60" points="1595.93 336.15 1625.59 336.15 1625.59 337.63 1595.93 337.63 1595.93 336.15 1595.93 336.15"/>
      <path class="cls-60" d="M1588.52,287.18v59.36h44.49v-43.34l-16.01-16.02h-28.48ZM1617.45,289.72l13.02,13.02s0,0,0,.01c0,0,0,0,0,0h-13.02v-13.03s0,0,0,0c0,0,0,0,0,0h0ZM1590,345.05v-56.39h25.95v15.58h15.57v40.81h-41.53Z"/>
    </g>
  </g>
  <g class="cls-33">
    <g class="cls-34">
      <polygon class="cls-60" points="1583.93 916.4 1613.59 916.4 1613.59 917.89 1583.93 917.89 1583.93 916.4 1583.93 916.4"/>
      <polygon class="cls-60" points="1583.93 910.47 1598.02 910.47 1598.02 911.95 1583.93 911.95 1583.93 910.47 1583.93 910.47"/>
      <polygon class="cls-60" points="1583.93 922.34 1613.59 922.34 1613.59 923.82 1583.93 923.82 1583.93 922.34 1583.93 922.34"/>
      <polygon class="cls-60" points="1583.93 928.27 1613.59 928.27 1613.59 929.76 1583.93 929.76 1583.93 928.27 1583.93 928.27"/>
      <polygon class="cls-60" points="1583.93 934.21 1613.59 934.21 1613.59 935.69 1583.93 935.69 1583.93 934.21 1583.93 934.21"/>
      <polygon class="cls-60" points="1583.93 940.15 1613.59 940.15 1613.59 941.63 1583.93 941.63 1583.93 940.15 1583.93 940.15"/>
      <path class="cls-60" d="M1576.52,891.18v59.36h44.49v-43.34l-16.01-16.02h-28.48ZM1605.45,893.72l13.02,13.02s0,0,0,.01c0,0,0,0,0,0h-13.02v-13.03s0,0,0,0c0,0,0,0,0,0h0ZM1578,949.05v-56.39h25.95v15.58h15.57v40.81h-41.53Z"/>
    </g>
  </g>
  <g>
    <g class="cls-47">
      <g class="cls-74">
        <path class="cls-60" d="M61.67,430.47c-1.89,0-3.77.16-5.64.45l-10.68-5.64c.08,2.6.63,5.17,1.63,7.57-6.38,1.63-12.38,3.56-16.46,3.56l-10.38-5.94c0,4.08,2.22,10.39,2.22,10.39,0,0-2.22,6.31-2.22,10.39l10.38-5.94c4.08,0,10.08,1.93,16.46,3.56-1,2.4-1.55,4.97-1.63,7.57l10.68-5.64c1.86.29,3.75.44,5.64.45,9.42,0,23.73-7.05,23.73-10.39s-14.31-10.39-23.73-10.39h0ZM76.11,446.11c-5.1,2.29-10.5,3.65-14.44,3.65-1.81,0-3.62-.15-5.41-.43l-.48-.07-.43.23-8.25,4.36c.21-1.5.62-2.95,1.23-4.33l.78-1.63-1.75-.45c-1.39-.36-2.78-.73-4.12-1.09-5.01-1.35-9.34-2.52-12.72-2.52h-.39l-.34.2-7.91,4.52c.45-2.44,1.08-4.84,1.88-7.19l.17-.49-.17-.49c-.81-2.35-1.44-4.75-1.88-7.19l7.91,4.52.34.2h.39c3.38,0,7.71-1.17,12.72-2.52,1.34-.36,2.72-.73,4.12-1.09l1.75-.45-.78-1.63c-.61-1.38-1.03-2.84-1.23-4.33l8.25,4.36.43.23.48-.07c1.79-.28,3.6-.42,5.41-.43,3.94,0,9.34,1.37,14.44,3.65,5.46,2.45,7.61,4.59,7.8,5.25-.19.65-2.34,2.8-7.8,5.25h0Z"/>
        <path class="cls-60" d="M75.76,438.63c0,.82-.66,1.48-1.48,1.48s-1.48-.66-1.48-1.48.66-1.48,1.48-1.48,1.48.66,1.48,1.48h0Z"/>
      </g>
    </g>
    <g class="cls-48">
      <g class="cls-93">
        <g class="cls-80">
          <path class="cls-60" d="M52.87,403.29c-20.81,0-37.68,16.87-37.69,37.69,0,20.82,16.86,37.7,37.66,37.71,20.81,0,37.68-16.87,37.69-37.69h0c.01-20.82-16.84-37.7-37.63-37.71h-.03ZM52.87,476.7c-19.7.01-35.68-15.96-35.69-35.67,0-9.14,3.5-17.94,9.78-24.57l50.41,50.44c-6.61,6.29-15.39,9.8-24.51,9.8h0ZM78.79,465.5l-50.41-50.44c14.3-13.55,36.87-12.93,50.41,1.38,13.02,13.76,13.02,35.3,0,49.06h0Z"/>
        </g>
      </g>
    </g>
  </g>
  <g>
    <g class="cls-85">
      <g class="cls-30">
        <path class="cls-60" d="M118.67,904.47c-1.89,0-3.77.16-5.64.45l-10.68-5.64c.08,2.6.63,5.17,1.63,7.57-6.38,1.63-12.38,3.56-16.46,3.56l-10.38-5.94c0,4.08,2.22,10.39,2.22,10.39,0,0-2.22,6.31-2.22,10.39l10.38-5.94c4.08,0,10.08,1.93,16.46,3.56-1,2.4-1.55,4.97-1.63,7.57l10.68-5.64c1.86.29,3.75.44,5.64.45,9.42,0,23.73-7.05,23.73-10.39s-14.31-10.39-23.73-10.39h0ZM133.11,920.11c-5.1,2.29-10.5,3.65-14.44,3.65-1.81,0-3.62-.15-5.41-.43l-.48-.07-.43.23-8.25,4.36c.21-1.5.62-2.95,1.23-4.33l.78-1.63-1.75-.45c-1.39-.36-2.78-.73-4.12-1.09-5.01-1.35-9.34-2.52-12.72-2.52h-.39l-.34.2-7.91,4.52c.45-2.44,1.08-4.84,1.88-7.19l.17-.49-.17-.49c-.81-2.35-1.44-4.75-1.88-7.19l7.91,4.52.34.2h.39c3.38,0,7.71-1.17,12.72-2.52,1.34-.36,2.72-.73,4.12-1.09l1.75-.45-.78-1.63c-.61-1.38-1.03-2.84-1.23-4.33l8.25,4.36.43.23.48-.07c1.79-.28,3.6-.42,5.41-.43,3.94,0,9.34,1.37,14.44,3.65,5.46,2.45,7.61,4.59,7.8,5.25-.19.65-2.34,2.8-7.8,5.25h0Z"/>
        <path class="cls-60" d="M132.76,912.63c0,.82-.66,1.48-1.48,1.48s-1.48-.66-1.48-1.48.66-1.48,1.48-1.48,1.48.66,1.48,1.48h0Z"/>
      </g>
    </g>
    <g class="cls-5">
      <g class="cls-56">
        <g class="cls-94">
          <path class="cls-60" d="M109.87,877.29c-20.81,0-37.68,16.87-37.69,37.69,0,20.82,16.86,37.7,37.66,37.71,20.81,0,37.68-16.87,37.69-37.69h0c.01-20.82-16.84-37.7-37.63-37.71h-.03ZM109.87,950.7c-19.7.01-35.68-15.96-35.69-35.67,0-9.14,3.5-17.94,9.78-24.57l50.41,50.44c-6.61,6.29-15.39,9.8-24.51,9.8h0ZM135.79,939.5l-50.41-50.44c14.3-13.55,36.87-12.93,50.41,1.38,13.02,13.76,13.02,35.3,0,49.06h0Z"/>
        </g>
      </g>
    </g>
  </g>
  <g>
    <g class="cls-88">
      <g class="cls-64">
        <path class="cls-60" d="M1619.67,232.47c-1.89,0-3.77.16-5.64.45l-10.68-5.64c.08,2.6.63,5.17,1.63,7.57-6.38,1.63-12.38,3.56-16.46,3.56l-10.38-5.94c0,4.08,2.22,10.39,2.22,10.39,0,0-2.22,6.31-2.22,10.39l10.38-5.94c4.08,0,10.08,1.93,16.46,3.56-1,2.4-1.55,4.97-1.63,7.57l10.68-5.64c1.86.29,3.75.44,5.64.45,9.42,0,23.73-7.05,23.73-10.39s-14.31-10.39-23.73-10.39h0ZM1634.11,248.11c-5.1,2.29-10.5,3.65-14.44,3.65-1.81,0-3.62-.15-5.41-.43l-.48-.07-.43.23-8.25,4.36c.21-1.5.62-2.95,1.23-4.33l.78-1.63-1.75-.45c-1.39-.36-2.78-.73-4.12-1.09-5.01-1.35-9.34-2.52-12.72-2.52h-.39l-.34.2-7.91,4.52c.45-2.44,1.08-4.84,1.88-7.19l.17-.49-.17-.49c-.81-2.35-1.44-4.75-1.88-7.19l7.91,4.52.34.2h.39c3.38,0,7.71-1.17,12.72-2.52,1.34-.36,2.72-.73,4.12-1.09l1.75-.45-.78-1.63c-.61-1.38-1.03-2.84-1.23-4.33l8.25,4.36.43.23.48-.07c1.79-.28,3.6-.42,5.41-.43,3.94,0,9.34,1.37,14.44,3.65,5.46,2.45,7.61,4.59,7.8,5.25-.19.65-2.34,2.8-7.8,5.25h0Z"/>
        <path class="cls-60" d="M1633.76,240.63c0,.82-.66,1.48-1.48,1.48s-1.48-.66-1.48-1.48.66-1.48,1.48-1.48,1.48.66,1.48,1.48h0Z"/>
      </g>
    </g>
    <g class="cls-69">
      <g class="cls-46">
        <g class="cls-102">
          <path class="cls-60" d="M1610.87,205.29c-20.81,0-37.68,16.87-37.69,37.69,0,20.82,16.86,37.7,37.66,37.71,20.81,0,37.68-16.87,37.69-37.69h0c.01-20.82-16.84-37.7-37.63-37.71h-.03ZM1610.87,278.7c-19.7.01-35.68-15.96-35.69-35.67,0-9.14,3.5-17.94,9.78-24.57l50.41,50.44c-6.61,6.29-15.39,9.8-24.51,9.8h0ZM1636.79,267.5l-50.41-50.44c14.3-13.55,36.87-12.93,50.41,1.38,13.02,13.76,13.02,35.3,0,49.06h0Z"/>
        </g>
      </g>
    </g>
  </g>
  <g>
    <g class="cls-63">
      <g class="cls-31">
        <path class="cls-60" d="M1607.67,826.47c-1.89,0-3.77.16-5.64.45l-10.68-5.64c.08,2.6.63,5.17,1.63,7.57-6.38,1.63-12.38,3.56-16.46,3.56l-10.38-5.94c0,4.08,2.22,10.39,2.22,10.39,0,0-2.22,6.31-2.22,10.39l10.38-5.94c4.08,0,10.08,1.93,16.46,3.56-1,2.4-1.55,4.97-1.63,7.57l10.68-5.64c1.86.29,3.75.44,5.64.45,9.42,0,23.73-7.05,23.73-10.39s-14.31-10.39-23.73-10.39h0ZM1622.11,842.11c-5.1,2.29-10.5,3.65-14.44,3.65-1.81,0-3.62-.15-5.41-.43l-.48-.07-.43.23-8.25,4.36c.21-1.5.62-2.95,1.23-4.33l.78-1.63-1.75-.45c-1.39-.36-2.78-.73-4.12-1.09-5.01-1.35-9.34-2.52-12.72-2.52h-.39l-.34.2-7.91,4.52c.45-2.44,1.08-4.84,1.88-7.19l.17-.49-.17-.49c-.81-2.35-1.44-4.75-1.88-7.19l7.91,4.52.34.2h.39c3.38,0,7.71-1.17,12.72-2.52,1.34-.36,2.72-.73,4.12-1.09l1.75-.45-.78-1.63c-.61-1.38-1.03-2.84-1.23-4.33l8.25,4.36.43.23.48-.07c1.79-.28,3.6-.42,5.41-.43,3.94,0,9.34,1.37,14.44,3.65,5.46,2.45,7.61,4.59,7.8,5.25-.19.65-2.34,2.8-7.8,5.25h0Z"/>
        <path class="cls-60" d="M1621.76,834.63c0,.82-.66,1.48-1.48,1.48s-1.48-.66-1.48-1.48.66-1.48,1.48-1.48,1.48.66,1.48,1.48h0Z"/>
      </g>
    </g>
    <g class="cls-58">
      <g class="cls-76">
        <g class="cls-1">
          <path class="cls-60" d="M1598.87,799.29c-20.81,0-37.68,16.87-37.69,37.69,0,20.82,16.86,37.7,37.66,37.71,20.81,0,37.68-16.87,37.69-37.69h0c.01-20.82-16.84-37.7-37.63-37.71h-.03ZM1598.87,872.7c-19.7.01-35.68-15.96-35.69-35.67,0-9.14,3.5-17.94,9.78-24.57l50.41,50.44c-6.61,6.29-15.39,9.8-24.51,9.8h0ZM1624.79,861.5l-50.41-50.44c14.3-13.55,36.87-12.93,50.41,1.38,13.02,13.76,13.02,35.3,0,49.06h0Z"/>
        </g>
      </g>
    </g>
  </g>
</svg>